<svg width="24" height="24" viewBox="0 0 24 24" fill="none" xmlns="http://www.w3.org/2000/svg">
<path d="M4.77778 6.66667C4.77778 5.19391 5.97169 4 7.44444 4C7.93536 4 8.33333 4.39797 8.33333 4.88889C8.33333 5.3798 7.93536 5.77778 7.44444 5.77778C6.95353 5.77778 6.55556 6.17575 6.55556 6.66667V10.1675C6.55556 10.8682 6.28251 11.5173 5.82622 12C6.28251 12.4827 6.55556 13.1318 6.55556 13.8325V17.3333C6.55556 17.8243 6.95353 18.2222 7.44444 18.2222C7.93536 18.2222 8.33333 18.6202 8.33333 19.1111C8.33333 19.602 7.93536 20 7.44444 20C5.97169 20 4.77778 18.8061 4.77778 17.3333V13.8325C4.77778 13.4246 4.50018 13.0691 4.10448 12.9701L3.6733 12.8623C3.2776 12.7635 3 12.4079 3 12C3 11.5921 3.2776 11.2365 3.6733 11.1377L4.10448 11.0299C4.50018 10.9309 4.77778 10.5754 4.77778 10.1675V6.66667ZM19 6.66667C19 5.19391 17.8061 4 16.3333 4C15.8424 4 15.4444 4.39797 15.4444 4.88889C15.4444 5.3798 15.8424 5.77778 16.3333 5.77778C16.8243 5.77778 17.2222 6.17575 17.2222 6.66667V10.1675C17.2222 10.8682 17.4953 11.5173 17.9516 12C17.4953 12.4827 17.2222 13.1318 17.2222 13.8325V17.3333C17.2222 17.8243 16.8243 18.2222 16.3333 18.2222C15.8424 18.2222 15.4444 18.6202 15.4444 19.1111C15.4444 19.602 15.8424 20 16.3333 20C17.8061 20 19 18.8061 19 17.3333V13.8325C19 13.4246 19.2776 13.0691 19.6733 12.9701L20.1044 12.8623C20.5002 12.7635 20.7778 12.4079 20.7778 12C20.7778 11.5921 20.5002 11.2365 20.1044 11.1377L19.6733 11.0299C19.2776 10.9309 19 10.5754 19 10.1675V6.66667Z" fill="#F59E0B"/>
</svg>
