<svg width="50" height="50" viewBox="0 0 50 50" fill="none" xmlns="http://www.w3.org/2000/svg">
<path d="M32.5335 0.925392L17 16.632H25.3325C30.9425 16.632 33.5 21.9708 33.5 24.9741V48.6653C33.5 49.4023 34.0909 50 34.82 50H48.5975C49.3266 50 49.9175 49.4044 49.9185 48.6674C49.928 41.803 50 27.6706 50 16.632C50 6.95869 42.3741 0.696034 34.865 0.0107314C33.9931 -0.0688175 33.1523 0.299623 32.5335 0.925392Z" fill="white"/>
<path fill-rule="evenodd" clip-rule="evenodd" d="M0 1.33333C0 0.596954 0.608893 0 1.36 0H3.06C3.8111 0 4.42 0.596954 4.42 1.33333V15.3333C4.42 16.0697 3.8111 16.6667 3.06 16.6667H1.36C0.608891 16.6667 0 16.0697 0 15.3333V1.33333ZM7.65 0C6.8989 0 6.29 0.596954 6.29 1.33333V15.3333C6.29 16.0697 6.8989 16.6667 7.65 16.6667H9.35C10.1011 16.6667 10.71 16.0697 10.71 15.3333V1.33333C10.71 0.596954 10.1011 0 9.35 0H7.65ZM13.94 0C13.1889 0 12.58 0.596954 12.58 1.33333V15.3333C12.58 16.0697 13.1889 16.6667 13.94 16.6667H17L13.3767 20.219C12.8666 20.719 12.58 21.3973 12.58 22.1046V48.6667C12.58 49.4031 13.1889 50 13.94 50H15.64C16.3911 50 17 49.4031 17 48.6667V16.6667V1.33333C17 0.596954 16.3911 0 15.64 0H13.94ZM0.796669 32.5523C0.286571 33.0523 0 33.7306 0 34.4379V48.6667C0 49.4031 0.608891 50 1.36 50H3.06C3.8111 50 4.42 49.4031 4.42 48.6667V29.8048C4.42 29.5077 4.05378 29.359 3.83958 29.569L0.796669 32.5523ZM6.29 28.2712C6.29 27.564 6.57658 26.8856 7.08666 26.3856L10.1296 23.4023C10.3438 23.1923 10.71 23.341 10.71 23.6381V48.6667C10.71 49.4031 10.1011 50 9.35 50H7.65C6.8989 50 6.29 49.4031 6.29 48.6667V28.2712Z" fill="white"/>
</svg>
